<svg xmlns="http://www.w3.org/2000/svg" viewBox="0 0 320 200" fill="none">
  <!-- Película: perfurações de filme + feixe de projetor -->
  <g fill="#a78bfa">
    <rect x="8" y="10" width="14" height="10" rx="2"/><rect x="8" y="34" width="14" height="10" rx="2"/>
    <rect x="8" y="58" width="14" height="10" rx="2"/><rect x="8" y="82" width="14" height="10" rx="2"/>
    <rect x="8" y="106" width="14" height="10" rx="2"/><rect x="8" y="130" width="14" height="10" rx="2"/>
    <rect x="8" y="154" width="14" height="10" rx="2"/><rect x="8" y="178" width="14" height="10" rx="2"/>
    <rect x="298" y="10" width="14" height="10" rx="2"/><rect x="298" y="34" width="14" height="10" rx="2"/>
    <rect x="298" y="58" width="14" height="10" rx="2"/><rect x="298" y="82" width="14" height="10" rx="2"/>
    <rect x="298" y="106" width="14" height="10" rx="2"/><rect x="298" y="130" width="14" height="10" rx="2"/>
    <rect x="298" y="154" width="14" height="10" rx="2"/><rect x="298" y="178" width="14" height="10" rx="2"/>
  </g>
  <g stroke="#a78bfa" stroke-width="1.5">
    <path d="M40 170 L150 60 L286 26" opacity=".7"/>
    <path d="M40 170 L170 96 L286 76" opacity=".45"/>
    <path d="M40 170 L186 132 L286 126" opacity=".25"/>
  </g>
  <circle cx="40" cy="170" r="9" stroke="#a78bfa" stroke-width="2"/>
  <rect x="216" y="18" width="70" height="116" rx="4" stroke="#a78bfa" stroke-width="1.5" opacity=".55"/>
</svg>
