<svg xmlns="http://www.w3.org/2000/svg" viewBox="0 0 320 200" fill="none">
  <!-- Games: pixels, grid de HUD e direcional -->
  <g stroke="#3ecf8e" stroke-width="1" opacity=".35">
    <path d="M0 50 H320 M0 100 H320 M0 150 H320"/>
    <path d="M64 0 V200 M128 0 V200 M192 0 V200 M256 0 V200"/>
  </g>
  <g fill="#3ecf8e">
    <rect x="204" y="38" width="14" height="14" opacity=".85"/>
    <rect x="218" y="52" width="14" height="14" opacity=".6"/>
    <rect x="232" y="38" width="14" height="14" opacity=".4"/>
    <rect x="218" y="24" width="14" height="14" opacity=".5"/>
    <rect x="246" y="52" width="14" height="14" opacity=".75"/>
    <rect x="260" y="66" width="14" height="14" opacity=".45"/>
    <rect x="84" y="128" width="14" height="14" opacity=".7"/>
    <rect x="98" y="142" width="14" height="14" opacity=".5"/>
    <rect x="70" y="142" width="14" height="14" opacity=".4"/>
  </g>
  <g stroke="#3ecf8e" stroke-width="2">
    <path d="M36 40 h20 M46 30 v20" opacity=".8"/>
    <circle cx="286" cy="150" r="7" opacity=".8"/>
    <circle cx="264" cy="168" r="7" opacity=".5"/>
  </g>
  <path d="M140 78 h44 v18 h-44 Z" stroke="#3ecf8e" stroke-width="1.4" opacity=".5"/>
</svg>
