<svg xmlns="http://www.w3.org/2000/svg" viewBox="0 0 320 200" fill="none">
  <!-- Espaço: campo de estrelas + rotas orbitais de mapa galáctico -->
  <g fill="#e2c044">
    <circle cx="24" cy="30" r="1.6"/><circle cx="70" cy="14" r="1.1"/><circle cx="118" cy="42" r="1.8"/>
    <circle cx="160" cy="18" r="1.2"/><circle cx="212" cy="34" r="1.5"/><circle cx="262" cy="12" r="1.1"/>
    <circle cx="296" cy="52" r="1.7"/><circle cx="40" cy="86" r="1.2"/><circle cx="92" cy="108" r="1.6"/>
    <circle cx="146" cy="84" r="1.1"/><circle cx="238" cy="96" r="1.9"/><circle cx="286" cy="120" r="1.2"/>
    <circle cx="26" cy="150" r="1.5"/><circle cx="84" cy="172" r="1.1"/><circle cx="150" cy="152" r="1.7"/>
    <circle cx="208" cy="176" r="1.3"/><circle cx="270" cy="162" r="1.6"/><circle cx="308" cy="186" r="1.1"/>
  </g>
  <g stroke="#e2c044" fill="none">
    <ellipse cx="160" cy="100" rx="130" ry="46" stroke-width="1.2" opacity=".5" transform="rotate(-14 160 100)"/>
    <ellipse cx="160" cy="100" rx="88" ry="30" stroke-width="1.2" opacity=".35" transform="rotate(-14 160 100)"/>
    <path d="M20 168 C 90 120, 210 96, 300 40" stroke-width="1.4" stroke-dasharray="7 6" opacity=".7"/>
  </g>
  <circle cx="160" cy="100" r="7" stroke="#e2c044" stroke-width="1.6"/>
  <circle cx="252" cy="66" r="3.4" fill="#e2c044" opacity=".8"/>
</svg>
