<svg xmlns="http://www.w3.org/2000/svg" viewBox="0 0 320 200" fill="none">
  <!-- Tecnologia: trilhas de circuito, chip e nós de rede -->
  <g stroke="#38bdf8" stroke-width="1.5">
    <path d="M20 40 H96 V96 H150" opacity=".6"/>
    <path d="M20 80 H70 V150 H126" opacity=".45"/>
    <path d="M300 30 H236 V84 H194" opacity=".55"/>
    <path d="M300 120 H250 V170 H210" opacity=".4"/>
    <path d="M60 190 V160 H120" opacity=".35"/>
  </g>
  <g fill="#38bdf8">
    <circle cx="20" cy="40" r="3.4" opacity=".8"/>
    <circle cx="20" cy="80" r="3.4" opacity=".6"/>
    <circle cx="300" cy="30" r="3.4" opacity=".7"/>
    <circle cx="300" cy="120" r="3.4" opacity=".55"/>
    <circle cx="60" cy="190" r="3.4" opacity=".5"/>
  </g>
  <!-- Chip central -->
  <rect x="150" y="76" width="44" height="44" rx="6" stroke="#38bdf8" stroke-width="1.8" opacity=".85"/>
  <rect x="162" y="88" width="20" height="20" rx="3" fill="#38bdf8" opacity=".35"/>
  <g stroke="#38bdf8" stroke-width="1.5" opacity=".6">
    <path d="M158 68 V76 M172 68 V76 M186 68 V76"/>
    <path d="M158 120 V128 M172 120 V128 M186 120 V128"/>
    <path d="M142 84 H150 M142 98 H150 M142 112 H150"/>
    <path d="M194 84 H202 M194 98 H202 M194 112 H202"/>
  </g>
  <!-- Fluxo de dados -->
  <path d="M16 14 H84 M96 14 H120" stroke="#38bdf8" stroke-width="1.4" stroke-dasharray="6 5" opacity=".45"/>
  <path d="M210 186 H304" stroke="#38bdf8" stroke-width="1.4" stroke-dasharray="6 5" opacity=".4"/>
</svg>
